<?xml version="1.0" encoding="UTF-8"?>
<svg xmlns="http://www.w3.org/2000/svg" xmlns:xlink="http://www.w3.org/1999/xlink" xmlns:svgjs="http://svgjs.com/svgjs" version="1.1" width="512" height="512" x="0" y="0" viewBox="0 0 512 512" style="enable-background:new 0 0 512 512" xml:space="preserve" class="">
  <g>
    <linearGradient xmlns="http://www.w3.org/2000/svg" id="linear-gradient" gradientUnits="userSpaceOnUse" x1="82.217" x2="82.217" y1="436.058" y2="86.734">
      <stop stop-opacity="1" stop-color="#fc2567" offset="0"/>
      <stop stop-opacity="1" stop-color="#fa2697" offset="0.5"/>
      <stop stop-opacity="1" stop-color="#ba08b5" offset="1"/>
    </linearGradient>
    <linearGradient xmlns="http://www.w3.org/2000/svg" xmlns:xlink="http://www.w3.org/1999/xlink" id="linear-gradient-2" x1="91.861" x2="91.861" xlink:href="#linear-gradient" y1="436.058" y2="86.734"/>
    <linearGradient xmlns="http://www.w3.org/2000/svg" xmlns:xlink="http://www.w3.org/1999/xlink" id="linear-gradient-3" x1="256" x2="256" xlink:href="#linear-gradient" y1="436.058" y2="86.734"/>
    <path xmlns="http://www.w3.org/2000/svg" d="m88.019 235.259a6 6 0 0 0 -6.939 4.883 757.823 757.823 0 0 0 -9.626 81.092 6 6 0 0 0 5.6 6.371c.131.009.26.013.389.013a6 6 0 0 0 5.986-5.618 745.933 745.933 0 0 1 9.471-79.8 6 6 0 0 0 -4.881-6.941z" fill="url(#linear-gradient)" data-original="url(#linear-gradient)"/>
    <path xmlns="http://www.w3.org/2000/svg" d="m94.087 205.417a6 6 0 0 0 -7.132 4.6q-.995 4.6-1.931 9.211a6 6 0 1 0 11.759 2.387q.922-4.536 1.9-9.062a6 6 0 0 0 -4.596-7.136z" fill="url(#linear-gradient-2)" data-original="url(#linear-gradient-2)"/>
    <path xmlns="http://www.w3.org/2000/svg" d="m466.468 381.853a6 6 0 0 0 -5.993 5.871c-.586 24.024-2.326 48.019-5.233 71.842l-29.737 7.269q-30.642 7.489-61.85 12.21c3.224-100.694-3.228-258.233-19.594-350.709h29.177c.371 0 .734-.029 1.1-.056v3.67a32.711 32.711 0 0 0 32.711 32.711h24.851a744.605 744.605 0 0 1 26.234 143q1.269 15.184 1.9 30.428a6 6 0 0 0 5.986 5.762h.006a5.994 5.994 0 0 0 6-6.229q-.649-15.5-1.934-30.96a756.383 756.383 0 0 0 -29.723-155.735l-11.974-39.584a10.321 10.321 0 0 0 9.324-10.26v-60.983a10.321 10.321 0 0 0 -10.309-10.31h-39.5v-2.264a14.689 14.689 0 0 0 -14.674-14.673h-75.567a14.635 14.635 0 0 0 -14.619 14.619v2.321h-10.084a8.009 8.009 0 0 0 -7.681-5.782h-23.421a8.011 8.011 0 0 0 -7.681 5.782h-149.352a10.322 10.322 0 0 0 -10.31 10.307v60.982a10.322 10.322 0 0 0 9.325 10.26l-11.975 39.587a755.05 755.05 0 0 0 -26.266 314.26 5.991 5.991 0 0 0 4.526 5.052l33.753 8.25a726.062 726.062 0 0 0 172.235 20.656 726.064 726.064 0 0 0 172.236-20.656l33.754-8.251a6 6 0 0 0 4.527-5.068 754.845 754.845 0 0 0 5.83-77.2 5.991 5.991 0 0 0 -5.998-6.119zm-78.556-340.06h37.805v57.607h-37.805zm-1.577 78.45a14.564 14.564 0 0 0 1.577-6.581v-2.262h27.958l12.484 41.266h-21.308a20.711 20.711 0 0 1 -20.711-20.711zm-91.285-92.771a2.622 2.622 0 0 1 2.619-2.619h75.569a2.676 2.676 0 0 1 2.674 2.673v86.136a2.677 2.677 0 0 1 -2.674 2.674h-75.569a2.622 2.622 0 0 1 -2.619-2.62v-2.316h61.35a8.883 8.883 0 0 0 8.873-8.873v-26.193a6 6 0 0 0 0-11.479v-26.188a8.884 8.884 0 0 0 -8.873-8.874h-61.35zm-21.765 14.321h79.989v22.8h-36.437a6 6 0 0 0 0 12h36.437v22.807h-79.989zm-27.421-5.782h15.421v69.167h-15.421zm-159.343 5.782h147.343v57.607h-147.343zm9.847 69.6h29.532v20.557a20.711 20.711 0 0 1 -20.711 20.711h-21.305zm255.225 369.381a716.735 716.735 0 0 1 -264.86-13.939l-29.733-7.269a742.87 742.87 0 0 1 23.345-294.9h24.852a32.711 32.711 0 0 0 32.703-32.716v-20.55h96.279a8.011 8.011 0 0 0 7.681 5.783h23.421a8.009 8.009 0 0 0 7.681-5.783h10.088v2.321a14.636 14.636 0 0 0 14.619 14.62h34.205c16.626 91.999 23.111 251.7 19.719 352.433z" fill="url(#linear-gradient-3)" data-original="url(#linear-gradient-3)" class=""/>
  </g>
</svg>
