<?xml version="1.0" encoding="UTF-8"?>
<svg xmlns="http://www.w3.org/2000/svg" xmlns:xlink="http://www.w3.org/1999/xlink" xmlns:svgjs="http://svgjs.com/svgjs" version="1.1" width="512" height="512" x="0" y="0" viewBox="0 0 512 512" style="enable-background:new 0 0 512 512" xml:space="preserve" class="">
  <g>
    <defs xmlns="http://www.w3.org/2000/svg">
      <linearGradient id="linear-gradient" x1="99.328" y1="414.642" x2="408.672" y2="105.297" gradientUnits="userSpaceOnUse">
        <stop stop-opacity="1" stop-color="#fc2567" offset="0"/>
        <stop stop-opacity="1" stop-color="#fa2697" offset="0.5"/>
        <stop stop-opacity="1" stop-color="#ba08b5" offset="1"/>
      </linearGradient>
    </defs>
    <g xmlns="http://www.w3.org/2000/svg" id="gradient">
      <path d="M360.57,324.265,296.7,168.13l13.892-31.256,45.381-25.928A8,8,0,0,0,360,104V76.12a46.949,46.949,0,0,0-32.14-44.6L306.53,24.41l-24-8a7.979,7.979,0,0,0-5.056.013l0-.013a68.317,68.317,0,0,1-42.937,0,7.981,7.981,0,0,0-4.473-.172l-32,8c-.2.05-.39.125-.584.189l-.006-.018-21.329,7.111A46.949,46.949,0,0,0,144,76.12V104a8,8,0,0,0,3.562,6.656l42.286,28.187,9.371,28.112L182.192,194.2A145.85,145.85,0,0,0,160,271.578v86.654a417.168,417.168,0,0,0,5.66,68.391l10.448,62.692A8,8,0,0,0,184,496h48a8,8,0,0,0,7.967-7.275l8-88c.007-.076.012-.151.017-.226l6-96,25.8,56.753L264.062,487.008A8,8,0,0,0,272,496h56a8,8,0,0,0,7.769-6.089l31-125.977a8,8,0,0,0,.218-1.468A88.549,88.549,0,0,0,360.57,324.265ZM344,76.12V99.357l-25.241,14.421a117.8,117.8,0,0,0-.122-56.215L315.3,44.2l7.506,2.5A30.97,30.97,0,0,1,344,76.12ZM272,34.332V48a16,16,0,0,1-32,0V34.332a84.6,84.6,0,0,0,16,1.535A84.6,84.6,0,0,0,272,34.332ZM160,99.718V76.12A30.969,30.969,0,0,1,181.2,46.7l7.505-2.5-8.934,35.737a57.9,57.9,0,0,0,1.243,32.406l.593,1.779ZM351.048,360.854,321.729,480H281.062l14.876-119.008a8,8,0,0,0-.655-4.3l-40-88a8,8,0,0,0-15.267,2.812L232.022,399.39,224.694,480H190.777l-9.335-56.008A401.173,401.173,0,0,1,176,358.232V271.578a129.851,129.851,0,0,1,19.761-68.9l19.023-30.439a8,8,0,0,0,.806-6.77l-19.4-58.189a41.928,41.928,0,0,1-.9-23.465L206.6,38.6,224,34.246V48a32,32,0,0,0,64,0V35.1l9.3,3.1,5.811,23.243a101.732,101.732,0,0,1-5.7,65.684l-16.08,36.179a46.647,46.647,0,0,1-5.815,4.674l8.968,13.25c.075-.05.146-.106.221-.157l61.057,149.248A72.509,72.509,0,0,1,351.048,360.854ZM268.724,188.93A81.6,81.6,0,0,1,280,230.381V248H264V230.381a65.682,65.682,0,0,0-8-31.481,65.671,65.671,0,0,0-8,31.481V248H232V230.381a81.606,81.606,0,0,1,9.608-38.476c-.778-.041-1.556-.088-2.327-.157l1.438-15.936c1.378.125,2.783.188,4.177.188h4.477a46.677,46.677,0,0,0,19.315-4.188l6.624,14.564A63.047,63.047,0,0,1,268.724,188.93Zm-33.661-16.475-6.126,14.781c-1.381-.573-8.514-4.081-8.514-4.081l7.154-14.31S234.033,172.028,235.063,172.455Z" style="fill:url(#linear-gradient)" fill=""/>
    </g>
  </g>
</svg>
