<?xml version="1.0" encoding="UTF-8"?>
<svg xmlns="http://www.w3.org/2000/svg" xmlns:xlink="http://www.w3.org/1999/xlink" xmlns:svgjs="http://svgjs.com/svgjs" version="1.1" width="512" height="512" x="0" y="0" viewBox="0 0 64 64" style="enable-background:new 0 0 512 512" xml:space="preserve" class="">
  <g>
    <linearGradient xmlns="http://www.w3.org/2000/svg" id="lg1">
      <stop stop-opacity="1" stop-color="#fc2567" offset="0"/>
      <stop stop-opacity="1" stop-color="#fa2697" offset="0.5"/>
      <stop stop-opacity="1" stop-color="#ba08b5" offset="1"/>
    </linearGradient>
    <linearGradient xmlns="http://www.w3.org/2000/svg" xmlns:xlink="http://www.w3.org/1999/xlink" id="SVGID_1_" gradientUnits="userSpaceOnUse" x1="5.32" x2="58.75" xlink:href="#lg1" y1="5.311" y2="58.741"/>
    <linearGradient xmlns="http://www.w3.org/2000/svg" xmlns:xlink="http://www.w3.org/1999/xlink" id="SVGID_00000088812602787777313280000010864760272896017058_" gradientUnits="userSpaceOnUse" x1="3.815" x2="57.245" xlink:href="#lg1" y1="6.815" y2="60.245"/>
    <linearGradient xmlns="http://www.w3.org/2000/svg" xmlns:xlink="http://www.w3.org/1999/xlink" id="SVGID_00000001648835128100265780000010257074974563363715_" gradientUnits="userSpaceOnUse" x1=".815" x2="54.245" xlink:href="#lg1" y1="9.815" y2="63.245"/>
    <linearGradient xmlns="http://www.w3.org/2000/svg" xmlns:xlink="http://www.w3.org/1999/xlink" id="SVGID_00000158746956132362116660000006199996149682180021_" gradientUnits="userSpaceOnUse" x1="-2.185" x2="51.245" xlink:href="#lg1" y1="12.815" y2="66.245"/>
    <linearGradient xmlns="http://www.w3.org/2000/svg" xmlns:xlink="http://www.w3.org/1999/xlink" id="SVGID_00000180354575278198727570000008769672230788087204_" gradientUnits="userSpaceOnUse" x1="-5.185" x2="48.245" xlink:href="#lg1" y1="15.815" y2="69.245"/>
    <linearGradient xmlns="http://www.w3.org/2000/svg" xmlns:xlink="http://www.w3.org/1999/xlink" id="SVGID_00000132058529796026740600000005568169355650132373_" gradientUnits="userSpaceOnUse" x1="-8.185" x2="45.245" xlink:href="#lg1" y1="18.815" y2="72.245"/>
    <path xmlns="http://www.w3.org/2000/svg" d="m55.958 50.047-1.933-42.168c-.002-.033-.005-.067-.01-.101-.656-4.434-4.532-7.778-9.014-7.778h-1c-.547 0-.993.446-1 .993 0 .027-.006.15-.028.332l-9.16-.272c-1.199-.034-2.421-.034-3.624 0l-9.161.272c-.022-.179-.028-.3-.028-.325 0-.553-.447-1-1-1h-1c-4.482 0-8.358 3.344-9.015 7.778-.005.034-.007.068-.009.101l-1.933 42.166c-.049 1.035.688 1.927 1.715 2.074l5.16.737-.814 8.962c-.051.558.137 1.116.515 1.53s.915.652 1.476.652h31.811c.561 0 1.099-.237 1.477-.651s.565-.973.515-1.53l-.814-8.962 5.162-.737c1.025-.148 1.761-1.04 1.712-2.073zm-10.957-48.047c3.482 0 6.496 2.586 7.029 6.022l1.706 37.223-5.174.574-.487-6.819h1.865c.549 0 1.079-.229 1.456-.629.376-.398.573-.941.54-1.488l-.938-15.941c-.032-.551-.512-.97-1.057-.939-.552.032-.972.506-.939 1.057l.644 10.94h-7.086c-.553 0-1 .447-1 1 0 .501.374.898.855.971l.433 3.029h-1.979l-.591-4.142c-.071-.492-.493-.858-.991-.858h-2.286v-22.101c0-.584.394-1.105.937-1.24 4.784-1.191 6.554-4.462 6.963-6.659zm-.132 35-.428-3h1.979l.428 3zm5.071 0h-1.072l-.428-3h1.324zm-1.235 10.817 1.557-.173.492 2.953-1.832.262zm-11.704-13.817h1.419l.428 3h-1.847zm-18.001-32h.1c.409 2.197 2.18 5.468 6.964 6.659.542.135.936.656.936 1.24v9.366c0 .553.447 1 1 1s1-.447 1-1v-9.366c0-1.514-1.009-2.822-2.454-3.182-2.794-.696-4.176-2.144-4.863-3.411l8.565-.254c1.164-.036 2.343-.036 3.507 0l8.564.254c-.688 1.267-2.069 2.715-4.863 3.411-1.445.359-2.454 1.668-2.454 3.182v19.101h-6.002v-5.747c0-.553-.447-1-1-1s-1 .447-1 1v8.747h-12.645l.643-10.941c.032-.551-.388-1.024-.939-1.057-.547-.033-1.024.389-1.057.939l-.938 15.94c-.033.548.164 1.091.54 1.489.377.401.908.63 1.457.63h1.866l-.487 6.82-5.174-.574 1.706-37.223c.532-3.437 3.546-6.023 7.028-6.023zm2.153 35 .428-3h1.979l-.428 3zm-4 0 .428-3h1.979l-.428 3zm-1.857 10.817-.217 3.042-1.832-.262.492-2.953zm-1.059-13.817h1.324l-.428 3h-1.072zm11.345 0h1.418v3h-1.847zm-15.409 13.248 1.576.175-.482 2.891-1.226-.175zm5.923 14.752.9-9.909c0-.004-.002-.008-.001-.012 0-.003.002-.005.002-.008l.934-13.071h10.069c.553 0 1-.447 1-1v-7h6.001v7c0 .553.447 1 1 1h10.069l.934 13.071c0 .002.001.004.002.005 0 .005-.002.009-.002.014l.901 9.91zm36.638-11.686-.482-2.891 1.576-.175.132 2.891z" fill="url(#SVGID_1_)" data-original="url(#SVGID_1_)"/>
    <circle xmlns="http://www.w3.org/2000/svg" cx="32" cy="35" fill="url(#SVGID_00000088812602787777313280000010864760272896017058_)" r="1" data-original="url(#SVGID_00000088812602787777313280000010864760272896017058_)"/>
    <circle xmlns="http://www.w3.org/2000/svg" cx="32" cy="41" fill="url(#SVGID_00000001648835128100265780000010257074974563363715_)" r="1" data-original="url(#SVGID_00000001648835128100265780000010257074974563363715_)"/>
    <circle xmlns="http://www.w3.org/2000/svg" cx="32" cy="47" fill="url(#SVGID_00000158746956132362116660000006199996149682180021_)" r="1" data-original="url(#SVGID_00000158746956132362116660000006199996149682180021_)"/>
    <circle xmlns="http://www.w3.org/2000/svg" cx="32" cy="53" fill="url(#SVGID_00000180354575278198727570000008769672230788087204_)" r="1" data-original="url(#SVGID_00000180354575278198727570000008769672230788087204_)"/>
    <circle xmlns="http://www.w3.org/2000/svg" cx="32" cy="59" fill="url(#SVGID_00000132058529796026740600000005568169355650132373_)" r="1" data-original="url(#SVGID_00000132058529796026740600000005568169355650132373_)"/>
  </g>
</svg>
