<?xml version="1.0"?>
<svg xmlns="http://www.w3.org/2000/svg" xmlns:xlink="http://www.w3.org/1999/xlink" xmlns:svgjs="http://svgjs.com/svgjs" version="1.1" width="512" height="512" x="0" y="0" viewBox="0 0 512 512" style="enable-background:new 0 0 512 512" xml:space="preserve" class=""><g><linearGradient xmlns="http://www.w3.org/2000/svg" id="SVGID_1_" gradientUnits="userSpaceOnUse" x1="256" x2="256" y1="436" y2="76"><stop stop-opacity="1" stop-color="#fc2567" offset="0"/><stop stop-opacity="1" stop-color="#fa2697" offset="0.5"/><stop stop-opacity="1" stop-color="#ba08b5" offset="1"/></linearGradient><g xmlns="http://www.w3.org/2000/svg"><g><path d="m505.409 245.423c-19.613-31.476-119.42-169.423-249.409-169.423-129.96 0-229.794 137.945-249.409 169.423l-6.591 10.577 6.591 10.577c19.613 31.476 119.42 169.423 249.409 169.423 129.96 0 229.794-137.944 249.409-169.423l6.591-10.577zm-249.409 150.577c-100.836 0-183.862-105.754-208.108-140.016 24.201-34.29 107.014-139.984 208.108-139.984 100.829 0 183.851 105.739 208.108 140.016-24.201 34.291-107.014 139.984-208.108 139.984zm0-240c-55.141 0-100 44.86-100 100s44.859 100 100 100 100-44.86 100-100-44.859-100-100-100zm0 160c-33.084 0-60-26.916-60-60s26.916-60 60-60 60 26.916 60 60-26.916 60-60 60z" fill="url(#SVGID_1_)" data-original="url(#SVGID_1_)"/></g></g></g></svg>
